#tb 0: 1/25
0,          0,          0,        1,    38016, 0x1c131302
0,          1,          1,        1,    38016, 0xbbca0c4f
0,          2,          2,        1,    38016, 0x81f5fd7b
0,          3,          3,        1,    38016, 0xc8990c96
0,          4,          4,        1,    38016, 0xd4c337ce
0,          5,          5,        1,    38016, 0xc4544ee1
0,          6,          6,        1,    38016, 0x5de26832
0,          7,          7,        1,    38016, 0xc1fc7ba9
0,          8,          8,        1,    38016, 0x5fea9c67
0,          9,          9,        1,    38016, 0xfa0aaf63
0,         10,         10,        1,    38016, 0xa7f6c07d
0,         11,         11,        1,    38016, 0x11a0c6ff
0,         12,         12,        1,    38016, 0xfdefc3a0
0,         13,         13,        1,    38016, 0xdb729a49
0,         14,         14,        1,    38016, 0x9b5e7f0b
0,         15,         15,        1,    38016, 0x6a047ea9
0,         16,         16,        1,    38016, 0xd8c29302
